# xmcd
#
# Track frame offsets:
#	150
#	14002
#	29444
#	45191
#	60903
#	76148
#	90897
#	105015
#	121606
#	135201
#	150142
#	164848
#	180861
#	196563
#	211215
#
# Disc length: 3015 seconds
#
# Revision: 0
# Processed by: cddbd v1.5.2PL0 Copyright (c) Steve Scherf et al.
# Submitted via: EasyCDDAExtractor 16.0.6.1
#
DISCID=910bc50f
DTITLE=Συλλογικός δίσκος - Ένας φίλος απ' τα παλιά 3
DYEAR=2011
DGENRE=Ελαφρά
TTITLE0=Γούναρης Νίκος-Τρίο Μέλοντυ - Λίγα λουλούδια
TTITLE1=Γούναρης Νίκος-Μαρούδας Τώνης - Να το πάρεις το κκορίτσι
TTITLE2=Μαρέλη Ελίζα - Ζητάτε να σάς πω
TTITLE3=Μαρούδας Τώνης-Τρίο Κιτάρα - Άσ' τα τα μαλλάκια σου
TTITLE4=Γούναρης Νίκος-Μωράκης Τάκης - Για μάς κελαηδούν τα πουλιά
TTITLE5=Βέμπο Σοφία-χορωδία - Κάποιος κάπου κάποτε
TTITLE6=Βάνου Τζένη - Ξύπνα αγάπη μου
TTITLE7=Μαρέλη Ελίζα - Αμάντο μίο
TTITLE8=Γούναρης Νίκος-Τρίο Κιτάρα - Ο μήνας έχει εννιά
TTITLE9=Λω Μαίρη - Καπετάνιε χαμογέλα
TTITLE10=Γούναρης Νίκος - Γλυκά μου μάτια αγαπημένα
TTITLE11=Βέμπο Σοφία - Λόντρα, Παρίσι, Αθήνα
TTITLE12=Βέμπο Σοφία - Σ' αγαπώ και μ' αρέσει η ζωή
TTITLE13=Βλαχοπούλου Ρένα - Ας πάει και το παλιάμπελο
TTITLE14=Γούναρης Νίκος-Μαρούδας Τώνης - Το γιασεμί στο στήθος σου
EXTD=
EXTT0=
EXTT1=
EXTT2=
EXTT3=
EXTT4=
EXTT5=
EXTT6=
EXTT7=
EXTT8=
EXTT9=
EXTT10=
EXTT11=
EXTT12=
EXTT13=
EXTT14=
PLAYORDER=
